<svg id="Layer_1" data-name="Layer 1" xmlns="http://www.w3.org/2000/svg" viewBox="0 0 88.38 138.09"><defs><style>.cls-1{fill:#b93600;}.cls-2{fill:#fff;}.cls-3{fill:#ffcaa2;}.cls-4{fill:#ff6d45;}.cls-5{fill:#5c2800;}.cls-6{fill:#ffb817;}</style></defs><rect class="cls-1" x="22.09" y="27.62" width="5.52" height="5.52"/><rect class="cls-2" x="16.57" y="33.14" width="5.52" height="5.52"/><rect class="cls-2" x="22.09" y="33.14" width="5.52" height="5.52"/><rect class="cls-2" x="22.09" y="38.66" width="5.52" height="5.52"/><rect class="cls-3" x="27.62" y="38.66" width="5.52" height="5.52"/><rect class="cls-3" x="33.14" y="38.66" width="5.52" height="5.52"/><rect class="cls-3" x="38.66" y="38.66" width="5.52" height="5.52"/><rect class="cls-3" x="44.19" y="38.66" width="5.52" height="5.52"/><rect class="cls-3" x="49.71" y="38.66" width="5.52" height="5.52"/><rect class="cls-3" x="55.23" y="38.66" width="5.52" height="5.52"/><rect class="cls-3" x="55.23" y="44.19" width="5.52" height="5.52"/><rect class="cls-3" x="55.23" y="49.71" width="5.52" height="5.52"/><rect class="cls-3" x="55.23" y="55.23" width="5.52" height="5.52"/><rect class="cls-2" x="49.71" y="55.23" width="5.52" height="5.52"/><rect class="cls-2" x="44.19" y="55.23" width="5.52" height="5.52"/><rect class="cls-2" x="38.66" y="55.23" width="5.52" height="5.52"/><rect class="cls-4" x="38.66" y="60.76" width="5.52" height="5.52"/><rect class="cls-4" x="44.19" y="60.76" width="5.52" height="5.52"/><rect class="cls-2" x="33.14" y="55.23" width="5.52" height="5.52"/><rect class="cls-3" x="27.62" y="55.23" width="5.52" height="5.52"/><rect class="cls-3" x="27.62" y="49.71" width="5.52" height="5.52"/><rect class="cls-3" x="27.62" y="44.19" width="5.52" height="5.52"/><rect x="33.14" y="44.19" width="5.52" height="5.52"/><rect class="cls-3" x="38.66" y="44.19" width="5.52" height="5.52"/><rect class="cls-3" x="44.19" y="44.19" width="5.52" height="5.52"/><rect x="49.71" y="44.19" width="5.52" height="5.52"/><rect class="cls-3" x="49.71" y="49.71" width="5.52" height="5.52"/><rect class="cls-3" x="44.19" y="49.71" width="5.52" height="5.52"/><rect class="cls-3" x="38.66" y="49.71" width="5.52" height="5.52"/><rect class="cls-3" x="33.14" y="49.71" width="5.52" height="5.52"/><rect class="cls-2" x="22.09" y="44.19" width="5.52" height="5.52"/><rect class="cls-2" x="22.09" y="49.71" width="5.52" height="5.52"/><rect class="cls-2" x="22.09" y="55.23" width="5.52" height="5.52"/><rect class="cls-2" x="22.09" y="60.76" width="5.52" height="5.52"/><rect class="cls-2" x="27.62" y="60.76" width="5.52" height="5.52"/><rect class="cls-2" x="27.62" y="66.28" width="5.52" height="5.52"/><rect class="cls-1" x="11.05" y="66.28" width="5.52" height="5.52"/><rect class="cls-2" x="5.52" y="60.76" width="5.52" height="5.52"/><rect class="cls-2" x="5.52" y="55.23" width="5.52" height="5.52"/><rect class="cls-2" y="55.23" width="5.52" height="5.52"/><rect class="cls-2" y="60.76" width="5.52" height="5.52"/><rect class="cls-1" x="5.52" y="66.28" width="5.52" height="5.52"/><rect class="cls-1" x="5.52" y="71.8" width="5.52" height="5.52"/><rect class="cls-1" x="11.05" y="71.8" width="5.52" height="5.52"/><rect class="cls-1" x="11.05" y="77.33" width="5.52" height="5.52"/><rect class="cls-1" x="16.57" y="71.8" width="5.52" height="5.52"/><rect class="cls-1" x="16.57" y="77.33" width="5.52" height="5.52"/><rect class="cls-1" x="16.57" y="82.85" width="5.52" height="5.52"/><rect class="cls-1" x="22.09" y="88.37" width="5.52" height="5.52"/><rect class="cls-1" x="22.09" y="93.9" width="5.52" height="5.52"/><rect class="cls-5" x="22.09" y="99.42" width="5.52" height="5.52"/><rect class="cls-1" x="22.09" y="104.95" width="5.52" height="5.52"/><rect class="cls-1" x="27.62" y="104.95" width="5.52" height="5.52"/><rect class="cls-1" x="33.14" y="104.95" width="5.52" height="5.52"/><rect class="cls-1" x="38.66" y="104.95" width="5.52" height="5.52"/><rect class="cls-1" x="44.19" y="104.95" width="5.52" height="5.52"/><rect class="cls-1" x="49.71" y="104.95" width="5.52" height="5.52"/><rect class="cls-1" x="55.23" y="104.95" width="5.52" height="5.52"/><rect class="cls-1" x="60.76" y="104.95" width="5.52" height="5.52"/><rect class="cls-1" x="60.76" y="110.47" width="5.52" height="5.52"/><rect class="cls-1" x="55.23" y="110.47" width="5.52" height="5.52"/><rect class="cls-1" x="49.71" y="110.47" width="5.52" height="5.52"/><rect class="cls-1" x="44.19" y="110.47" width="5.52" height="5.52"/><rect class="cls-1" x="38.66" y="110.47" width="5.52" height="5.52"/><rect class="cls-1" x="33.14" y="110.47" width="5.52" height="5.52"/><rect class="cls-1" x="27.62" y="110.47" width="5.52" height="5.52"/><rect class="cls-1" x="27.62" y="115.99" width="5.52" height="5.52"/><rect class="cls-1" x="27.62" y="121.52" width="5.52" height="5.52"/><rect x="27.62" y="127.04" width="5.52" height="5.52"/><rect x="27.62" y="132.56" width="5.52" height="5.52"/><rect x="22.09" y="132.56" width="5.52" height="5.52"/><rect x="33.14" y="132.56" width="5.52" height="5.52"/><rect x="33.14" y="127.04" width="5.52" height="5.52"/><rect class="cls-1" x="33.14" y="121.52" width="5.52" height="5.52"/><rect class="cls-1" x="33.14" y="115.99" width="5.52" height="5.52"/><rect class="cls-1" x="55.23" y="115.99" width="5.52" height="5.52"/><rect class="cls-1" x="49.71" y="115.99" width="5.52" height="5.52"/><rect class="cls-1" x="49.71" y="121.52" width="5.52" height="5.52"/><rect x="49.71" y="127.04" width="5.52" height="5.52"/><rect x="49.71" y="132.56" width="5.52" height="5.52"/><rect x="55.23" y="132.56" width="5.52" height="5.52"/><rect x="60.76" y="132.56" width="5.52" height="5.52"/><rect x="55.23" y="127.04" width="5.52" height="5.52"/><rect class="cls-1" x="55.23" y="121.52" width="5.52" height="5.52"/><rect class="cls-1" x="22.09" y="110.47" width="5.52" height="5.52"/><rect class="cls-5" x="27.62" y="99.42" width="5.52" height="5.52"/><rect class="cls-5" x="33.14" y="99.42" width="5.52" height="5.52"/><rect class="cls-6" x="38.66" y="99.42" width="5.52" height="5.52"/><rect class="cls-6" x="44.19" y="99.42" width="5.52" height="5.52"/><rect class="cls-5" x="49.71" y="99.42" width="5.52" height="5.52"/><rect class="cls-5" x="55.23" y="99.42" width="5.52" height="5.52"/><rect class="cls-5" x="60.76" y="99.42" width="5.52" height="5.52"/><rect class="cls-1" x="27.62" y="93.9" width="5.52" height="5.52"/><rect class="cls-1" x="33.14" y="93.9" width="5.52" height="5.52"/><rect class="cls-1" x="38.66" y="93.9" width="5.52" height="5.52"/><rect class="cls-1" x="44.19" y="93.9" width="5.52" height="5.52"/><rect class="cls-1" x="49.71" y="93.9" width="5.52" height="5.52"/><rect class="cls-1" x="55.23" y="93.9" width="5.52" height="5.52"/><rect class="cls-1" x="60.76" y="93.9" width="5.52" height="5.52"/><rect class="cls-1" x="27.62" y="88.37" width="5.52" height="5.52"/><rect class="cls-1" x="33.14" y="88.37" width="5.52" height="5.52"/><rect class="cls-1" x="38.66" y="88.37" width="5.52" height="5.52"/><rect class="cls-1" x="44.19" y="88.37" width="5.52" height="5.52"/><rect class="cls-1" x="49.71" y="88.37" width="5.52" height="5.52"/><rect class="cls-1" x="55.23" y="88.37" width="5.52" height="5.52"/><rect class="cls-1" x="60.76" y="88.37" width="5.52" height="5.52"/><rect class="cls-1" x="66.28" y="82.85" width="5.52" height="5.52"/><rect class="cls-1" x="22.09" y="77.33" width="5.52" height="5.52"/><rect class="cls-1" x="22.09" y="82.85" width="5.52" height="5.52"/><rect class="cls-1" x="27.62" y="82.85" width="5.52" height="5.52"/><rect class="cls-1" x="33.14" y="82.85" width="5.52" height="5.52"/><rect class="cls-1" x="38.66" y="82.85" width="5.52" height="5.52"/><rect class="cls-1" x="44.19" y="82.85" width="5.52" height="5.52"/><rect class="cls-1" x="49.71" y="82.85" width="5.52" height="5.52"/><rect class="cls-1" x="55.23" y="82.85" width="5.52" height="5.52"/><rect class="cls-1" x="60.76" y="82.85" width="5.52" height="5.52"/><rect class="cls-1" x="60.76" y="77.33" width="5.52" height="5.52"/><rect class="cls-1" x="66.28" y="77.33" width="5.52" height="5.52"/><rect class="cls-1" x="66.28" y="71.8" width="5.52" height="5.52"/><rect class="cls-1" x="71.81" y="66.28" width="5.52" height="5.52"/><rect class="cls-2" x="77.33" y="60.76" width="5.52" height="5.52"/><rect class="cls-2" x="77.33" y="55.23" width="5.52" height="5.52"/><rect class="cls-2" x="82.85" y="55.23" width="5.52" height="5.52"/><rect class="cls-2" x="82.85" y="60.76" width="5.52" height="5.52"/><rect class="cls-1" x="77.33" y="66.28" width="5.52" height="5.52"/><rect class="cls-1" x="71.81" y="71.8" width="5.52" height="5.52"/><rect class="cls-1" x="77.33" y="71.8" width="5.52" height="5.52"/><rect class="cls-1" x="71.81" y="77.33" width="5.52" height="5.52"/><rect class="cls-1" x="22.09" y="71.8" width="5.52" height="5.52"/><rect class="cls-1" x="27.62" y="71.8" width="5.52" height="5.52"/><rect class="cls-1" x="27.62" y="77.33" width="5.52" height="5.52"/><rect class="cls-1" x="33.14" y="77.33" width="5.52" height="5.52"/><rect class="cls-1" x="38.66" y="77.33" width="5.52" height="5.52"/><rect class="cls-1" x="44.19" y="77.33" width="5.52" height="5.52"/><rect class="cls-1" x="49.71" y="77.33" width="5.52" height="5.52"/><rect class="cls-1" x="55.23" y="77.33" width="5.52" height="5.52"/><rect class="cls-1" x="55.23" y="71.8" width="5.52" height="5.52"/><rect class="cls-1" x="60.76" y="71.8" width="5.52" height="5.52"/><rect class="cls-2" x="33.14" y="66.28" width="5.52" height="5.52"/><rect class="cls-2" x="33.14" y="71.8" width="5.52" height="5.52"/><rect class="cls-2" x="38.66" y="71.8" width="5.52" height="5.52"/><rect class="cls-2" x="44.19" y="71.8" width="5.52" height="5.52"/><rect class="cls-2" x="49.71" y="71.8" width="5.52" height="5.52"/><rect class="cls-2" x="49.71" y="66.28" width="5.52" height="5.52"/><rect class="cls-2" x="55.23" y="66.28" width="5.52" height="5.52"/><rect class="cls-2" x="55.23" y="60.76" width="5.52" height="5.52"/><rect class="cls-2" x="60.76" y="60.76" width="5.52" height="5.52"/><rect class="cls-2" x="60.76" y="55.23" width="5.52" height="5.52"/><rect class="cls-2" x="60.76" y="49.71" width="5.52" height="5.52"/><rect class="cls-2" x="60.76" y="44.19" width="5.52" height="5.52"/><rect class="cls-2" x="60.76" y="38.66" width="5.52" height="5.52"/><rect class="cls-2" x="33.14" y="60.76" width="5.52" height="5.52"/><rect class="cls-2" x="49.71" y="60.76" width="5.52" height="5.52"/><rect class="cls-2" x="44.19" y="66.28" width="5.52" height="5.52"/><rect class="cls-2" x="38.66" y="66.28" width="5.52" height="5.52"/><rect class="cls-2" x="27.62" y="33.14" width="5.52" height="5.52"/><rect class="cls-2" x="33.14" y="33.14" width="5.52" height="5.52"/><rect class="cls-2" x="38.66" y="33.14" width="5.52" height="5.52"/><rect class="cls-2" x="44.19" y="33.14" width="5.52" height="5.52"/><rect class="cls-2" x="49.71" y="33.14" width="5.52" height="5.52"/><rect class="cls-2" x="55.23" y="33.14" width="5.52" height="5.52"/><rect class="cls-2" x="60.76" y="33.14" width="5.52" height="5.52"/><rect class="cls-2" x="66.28" y="33.14" width="5.52" height="5.52"/><rect class="cls-1" x="27.62" y="27.62" width="5.52" height="5.52"/><rect class="cls-1" x="33.14" y="27.62" width="5.52" height="5.52"/><rect class="cls-1" x="38.66" y="27.62" width="5.52" height="5.52"/><rect class="cls-1" x="44.19" y="27.62" width="5.52" height="5.52"/><rect class="cls-1" x="49.71" y="27.62" width="5.52" height="5.52"/><rect class="cls-1" x="55.23" y="27.62" width="5.52" height="5.52"/><rect class="cls-1" x="55.23" y="22.09" width="5.52" height="5.52"/><rect class="cls-1" x="60.76" y="27.62" width="5.52" height="5.52"/><rect class="cls-1" x="27.62" y="22.09" width="5.52" height="5.52"/><rect class="cls-1" x="33.14" y="16.57" width="5.52" height="5.52"/><rect class="cls-1" x="38.66" y="16.57" width="5.52" height="5.52"/><rect class="cls-1" x="44.19" y="16.57" width="5.52" height="5.52"/><rect class="cls-1" x="49.71" y="16.57" width="5.52" height="5.52"/><rect class="cls-1" x="49.71" y="22.09" width="5.52" height="5.52"/><rect class="cls-1" x="44.19" y="22.09" width="5.52" height="5.52"/><rect class="cls-1" x="38.66" y="22.09" width="5.52" height="5.52"/><rect class="cls-1" x="33.14" y="22.09" width="5.52" height="5.52"/><rect class="cls-1" x="38.66" y="11.05" width="5.52" height="5.52"/><rect class="cls-1" x="38.66" y="5.52" width="5.52" height="5.52"/><rect class="cls-1" x="44.19" y="11.05" width="5.52" height="5.52"/><rect class="cls-1" x="49.71" y="11.05" width="5.52" height="5.52"/><rect class="cls-1" x="33.14" y="11.05" width="5.52" height="5.52"/><rect class="cls-1" x="33.14" y="5.52" width="5.52" height="5.52"/><rect class="cls-1" x="27.62" y="5.52" width="5.52" height="5.52"/><rect class="cls-1" x="22.09" y="5.52" width="5.52" height="5.52"/><rect class="cls-2" x="22.09" y="11.05" width="5.52" height="5.52"/><rect class="cls-2" x="22.09" y="13.81" width="5.52" height="5.52"/><rect class="cls-2" x="19.33" y="11.05" width="5.52" height="5.52"/><rect class="cls-2" x="19.33" y="13.81" width="5.52" height="5.52"/><rect class="cls-1" x="27.62" width="5.52" height="5.52"/><rect class="cls-1" x="33.14" width="5.52" height="5.52"/><rect class="cls-1" x="38.66" width="5.52" height="5.52"/><rect class="cls-1" x="38.66" y="5.52" width="5.52" height="5.52"/><rect class="cls-1" x="44.19" y="5.52" width="5.52" height="5.52"/></svg>