<svg id="Layer_1" data-name="Layer 1" xmlns="http://www.w3.org/2000/svg" viewBox="0 0 127.04 138.09"><defs><style>.cls-1{fill:#fff;}.cls-2{fill:#e55238;}.cls-3{fill:#ff6d45;}.cls-4{fill:#b93600;}.cls-5{fill:#5c2800;}</style></defs><rect class="cls-1" x="44.19" y="33.14" width="5.52" height="5.52"/><rect class="cls-1" x="49.71" y="33.14" width="5.52" height="5.52"/><rect class="cls-1" x="55.23" y="33.14" width="5.52" height="5.52"/><rect class="cls-1" x="55.23" y="27.62" width="5.52" height="5.52"/><rect class="cls-1" x="49.71" y="27.62" width="5.52" height="5.52"/><rect class="cls-2" x="44.19" y="27.62" width="5.52" height="5.52"/><rect class="cls-1" x="44.19" y="22.09" width="5.52" height="5.52"/><rect class="cls-1" x="49.71" y="22.09" width="5.52" height="5.52"/><rect class="cls-1" x="55.23" y="22.09" width="5.52" height="5.52"/><rect x="55.23" y="22.09" width="5.52" height="5.52"/><rect class="cls-1" x="60.76" y="27.62" width="5.52" height="5.52"/><rect class="cls-1" x="60.76" y="33.14" width="5.52" height="5.52"/><rect class="cls-1" x="66.28" y="33.14" width="5.52" height="5.52"/><rect class="cls-1" x="66.28" y="27.62" width="5.52" height="5.52"/><rect class="cls-1" x="66.28" y="22.09" width="5.52" height="5.52"/><rect class="cls-1" x="66.28" y="16.57" width="5.52" height="5.52"/><rect class="cls-1" x="60.76" y="16.57" width="5.52" height="5.52"/><rect class="cls-1" x="55.23" y="16.57" width="5.52" height="5.52"/><rect class="cls-1" x="60.76" y="22.09" width="5.52" height="5.52"/><rect class="cls-1" x="49.71" y="16.57" width="5.52" height="5.52"/><rect class="cls-1" x="44.19" y="16.57" width="5.52" height="5.52"/><rect class="cls-1" x="38.66" y="16.57" width="5.52" height="5.52"/><rect class="cls-1" x="38.66" y="22.09" width="5.52" height="5.52"/><rect class="cls-3" x="38.66" y="27.62" width="5.52" height="5.52"/><rect class="cls-1" x="38.66" y="33.14" width="5.52" height="5.52"/><rect class="cls-2" x="33.14" y="27.62" width="5.52" height="5.52"/><rect class="cls-3" x="27.62" y="27.62" width="5.52" height="5.52"/><rect class="cls-1" x="33.14" y="22.09" width="5.52" height="5.52"/><rect class="cls-1" x="33.14" y="16.57" width="5.52" height="5.52"/><rect class="cls-1" x="38.66" y="11.05" width="5.52" height="5.52"/><rect x="33.14" y="11.05" width="5.52" height="5.52"/><rect x="27.62" y="11.05" width="5.52" height="5.52"/><rect x="71.8" y="11.05" width="5.52" height="5.52"/><rect x="77.33" y="11.05" width="5.52" height="5.52"/><rect x="71.8" y="5.52" width="5.52" height="5.52"/><rect x="66.28" y="5.52" width="5.52" height="5.52"/><rect x="60.76" y="5.52" width="5.52" height="5.52"/><rect x="55.23" y="5.52" width="5.52" height="5.52"/><rect x="49.71" y="5.52" width="5.52" height="5.52"/><rect x="44.19" y="5.52" width="5.52" height="5.52"/><rect class="cls-1" x="38.66" y="5.52" width="5.52" height="5.52"/><rect x="33.14" y="5.52" width="5.52" height="5.52"/><rect x="33.14" width="5.52" height="5.52"/><rect class="cls-1" x="38.66" width="5.52" height="5.52"/><rect x="44.19" width="5.52" height="5.52"/><rect x="49.71" width="5.52" height="5.52"/><rect x="55.23" width="5.52" height="5.52"/><rect x="60.76" width="5.52" height="5.52"/><rect x="66.28" width="5.52" height="5.52"/><rect x="71.8" width="5.52" height="5.52"/><rect x="44.19" y="11.05" width="5.52" height="5.52"/><rect x="49.71" y="11.05" width="5.52" height="5.52"/><rect x="55.23" y="11.05" width="5.52" height="5.52"/><rect x="60.76" y="11.05" width="5.52" height="5.52"/><rect class="cls-1" x="71.8" y="16.57" width="5.52" height="5.52"/><rect class="cls-1" x="71.8" y="22.09" width="5.52" height="5.52"/><rect x="66.28" y="11.05" width="5.52" height="5.52"/><rect class="cls-1" x="71.8" y="27.62" width="5.52" height="5.52"/><rect class="cls-1" x="71.8" y="33.14" width="5.52" height="5.52"/><rect class="cls-1" x="33.14" y="33.14" width="5.52" height="5.52"/><rect class="cls-1" x="38.66" y="38.66" width="5.52" height="5.52"/><rect class="cls-1" x="38.66" y="44.19" width="5.52" height="5.52"/><rect class="cls-1" x="33.14" y="44.19" width="5.52" height="5.52"/><rect class="cls-1" x="33.14" y="49.71" width="5.52" height="5.52"/><rect class="cls-1" x="33.14" y="55.23" width="5.52" height="5.52"/><rect class="cls-1" x="33.14" y="60.76" width="5.52" height="5.52"/><rect class="cls-1" x="33.14" y="66.28" width="5.52" height="5.52"/><rect class="cls-1" x="33.14" y="71.8" width="5.52" height="5.52"/><rect class="cls-1" x="38.66" y="71.8" width="5.52" height="5.52"/><rect class="cls-4" x="44.19" y="71.8" width="5.52" height="5.52"/><rect class="cls-1" x="49.71" y="71.8" width="5.52" height="5.52"/><rect class="cls-1" x="55.23" y="71.8" width="5.52" height="5.52"/><rect class="cls-1" x="60.76" y="71.8" width="5.52" height="5.52"/><rect class="cls-1" x="66.28" y="71.8" width="5.52" height="5.52"/><rect class="cls-1" x="71.8" y="71.8" width="5.52" height="5.52"/><rect class="cls-1" x="77.33" y="71.8" width="5.52" height="5.52"/><rect class="cls-1" x="77.33" y="66.28" width="5.52" height="5.52"/><rect class="cls-1" x="77.33" y="60.76" width="5.52" height="5.52"/><rect class="cls-5" x="77.33" y="55.23" width="5.52" height="5.52"/><rect class="cls-1" x="77.33" y="49.71" width="5.52" height="5.52"/><rect class="cls-1" x="77.33" y="44.19" width="5.52" height="5.52"/><rect class="cls-1" x="71.8" y="44.19" width="5.52" height="5.52"/><rect class="cls-1" x="66.28" y="44.19" width="5.52" height="5.52"/><rect class="cls-1" x="60.76" y="44.19" width="5.52" height="5.52"/><rect class="cls-1" x="55.23" y="44.19" width="5.52" height="5.52"/><rect class="cls-1" x="49.71" y="44.19" width="5.52" height="5.52"/><rect class="cls-1" x="44.19" y="44.19" width="5.52" height="5.52"/><rect class="cls-1" x="44.19" y="49.71" width="5.52" height="5.52"/><rect class="cls-1" x="38.66" y="49.71" width="5.52" height="5.52"/><rect class="cls-1" x="38.66" y="55.23" width="5.52" height="5.52"/><rect class="cls-1" x="38.66" y="60.76" width="5.52" height="5.52"/><rect class="cls-1" x="44.19" y="60.76" width="5.52" height="5.52"/><rect class="cls-1" x="44.19" y="66.28" width="5.52" height="5.52"/><rect class="cls-1" x="38.66" y="66.28" width="5.52" height="5.52"/><rect class="cls-1" x="44.19" y="66.28" width="5.52" height="5.52"/><rect class="cls-1" x="49.71" y="66.28" width="5.52" height="5.52"/><rect class="cls-1" x="55.23" y="66.28" width="5.52" height="5.52"/><rect class="cls-1" x="60.76" y="66.28" width="5.52" height="5.52"/><rect class="cls-1" x="66.28" y="66.28" width="5.52" height="5.52"/><rect class="cls-1" x="71.8" y="66.28" width="5.52" height="5.52"/><rect class="cls-1" x="71.8" y="60.76" width="5.52" height="5.52"/><rect class="cls-1" x="71.8" y="55.23" width="5.52" height="5.52"/><rect class="cls-1" x="71.8" y="49.71" width="5.52" height="5.52"/><rect class="cls-1" x="66.28" y="49.71" width="5.52" height="5.52"/><rect class="cls-1" x="60.76" y="49.71" width="5.52" height="5.52"/><rect class="cls-1" x="55.23" y="49.71" width="5.52" height="5.52"/><rect class="cls-1" x="49.71" y="49.71" width="5.52" height="5.52"/><rect class="cls-1" x="44.19" y="49.71" width="5.52" height="5.52"/><rect class="cls-4" x="44.19" y="55.23" width="5.52" height="5.52"/><rect class="cls-1" x="49.71" y="55.23" width="5.52" height="5.52"/><rect class="cls-1" x="49.71" y="60.76" width="5.52" height="5.52"/><rect class="cls-1" x="55.23" y="60.76" width="5.52" height="5.52"/><rect class="cls-1" x="60.76" y="60.76" width="5.52" height="5.52"/><rect class="cls-1" x="66.28" y="60.76" width="5.52" height="5.52"/><rect class="cls-1" x="66.28" y="55.23" width="5.52" height="5.52"/><rect class="cls-1" x="60.76" y="55.23" width="5.52" height="5.52"/><rect class="cls-1" x="55.23" y="55.23" width="5.52" height="5.52"/><rect class="cls-1" x="82.85" y="49.71" width="5.52" height="5.52"/><rect class="cls-5" x="82.85" y="55.23" width="5.52" height="5.52"/><rect class="cls-1" x="82.85" y="60.76" width="5.52" height="5.52"/><rect class="cls-1" x="82.85" y="66.28" width="5.52" height="5.52"/><rect class="cls-1" x="82.85" y="71.8" width="5.52" height="5.52"/><rect class="cls-1" x="82.85" y="77.33" width="5.52" height="5.52"/><rect class="cls-1" x="77.33" y="77.33" width="5.52" height="5.52"/><rect class="cls-1" x="71.8" y="77.33" width="5.52" height="5.52"/><rect class="cls-1" x="66.28" y="77.33" width="5.52" height="5.52"/><rect class="cls-1" x="60.76" y="77.33" width="5.52" height="5.52"/><rect class="cls-1" x="55.23" y="77.33" width="5.52" height="5.52"/><rect class="cls-1" x="49.71" y="77.33" width="5.52" height="5.52"/><rect class="cls-1" x="44.19" y="77.33" width="5.52" height="5.52"/><rect class="cls-1" x="38.66" y="77.33" width="5.52" height="5.52"/><rect class="cls-1" x="27.62" y="49.71" width="5.52" height="5.52"/><rect class="cls-1" x="27.62" y="55.23" width="5.52" height="5.52"/><rect class="cls-1" x="27.62" y="60.76" width="5.52" height="5.52"/><rect class="cls-1" x="27.62" y="66.28" width="5.52" height="5.52"/><rect class="cls-1" x="27.62" y="71.8" width="5.52" height="5.52"/><rect class="cls-1" x="27.62" y="77.33" width="5.52" height="5.52"/><rect class="cls-1" x="33.14" y="82.85" width="5.52" height="5.52"/><rect class="cls-1" x="22.09" y="71.8" width="5.52" height="5.52"/><rect class="cls-1" x="22.09" y="66.28" width="5.52" height="5.52"/><rect class="cls-1" x="22.09" y="60.76" width="5.52" height="5.52"/><rect class="cls-5" x="22.09" y="55.23" width="5.52" height="5.52"/><rect class="cls-5" x="16.57" y="55.23" width="5.52" height="5.52"/><rect class="cls-5" x="11.05" y="55.23" width="5.52" height="5.52"/><rect class="cls-4" x="5.52" y="55.23" width="5.52" height="5.52"/><rect class="cls-4" x="5.52" y="49.71" width="5.52" height="5.52"/><rect class="cls-4" y="49.71" width="5.52" height="5.52"/><rect class="cls-4" y="55.23" width="5.52" height="5.52"/><rect class="cls-1" x="27.62" y="55.23" width="5.52" height="5.52"/><rect class="cls-5" x="88.38" y="55.23" width="5.52" height="5.52"/><rect class="cls-5" x="93.9" y="55.23" width="5.52" height="5.52"/><rect class="cls-5" x="99.42" y="55.23" width="5.52" height="5.52"/><rect class="cls-5" x="104.95" y="55.23" width="5.52" height="5.52"/><rect class="cls-5" x="110.47" y="55.23" width="5.52" height="5.52"/><rect class="cls-4" x="115.99" y="55.23" width="5.52" height="5.52"/><rect class="cls-4" x="121.52" y="55.23" width="5.52" height="5.52"/><rect class="cls-4" x="121.52" y="49.71" width="5.52" height="5.52"/><rect class="cls-4" x="115.99" y="49.71" width="5.52" height="5.52"/><rect class="cls-1" x="88.38" y="60.76" width="5.52" height="5.52"/><rect class="cls-1" x="88.38" y="66.28" width="5.52" height="5.52"/><rect class="cls-1" x="88.38" y="71.8" width="5.52" height="5.52"/><rect class="cls-1" x="33.14" y="88.38" width="5.52" height="5.52"/><rect class="cls-1" x="27.62" y="88.38" width="5.52" height="5.52"/><rect class="cls-1" x="22.09" y="88.38" width="5.52" height="5.52"/><rect class="cls-1" x="22.09" y="93.9" width="5.52" height="5.52"/><rect class="cls-1" x="16.57" y="93.9" width="5.52" height="5.52"/><rect class="cls-1" x="16.57" y="99.42" width="5.52" height="5.52"/><rect class="cls-1" x="16.57" y="104.95" width="5.52" height="5.52"/><rect class="cls-1" x="16.57" y="110.47" width="5.52" height="5.52"/><rect class="cls-1" x="16.57" y="115.99" width="5.52" height="5.52"/><rect class="cls-1" x="16.57" y="121.52" width="5.52" height="5.52"/><rect class="cls-1" x="22.09" y="121.52" width="5.52" height="5.52"/><rect class="cls-1" x="22.09" y="127.04" width="5.52" height="5.52"/><rect class="cls-1" x="27.62" y="127.04" width="5.52" height="5.52"/><rect class="cls-1" x="27.62" y="132.56" width="5.52" height="5.52"/><rect class="cls-1" x="33.14" y="132.56" width="5.52" height="5.52"/><rect class="cls-1" x="38.66" y="132.56" width="5.52" height="5.52"/><rect class="cls-1" x="44.19" y="132.56" width="5.52" height="5.52"/><rect class="cls-1" x="49.71" y="132.56" width="5.52" height="5.52"/><rect class="cls-1" x="55.23" y="132.56" width="5.52" height="5.52"/><rect class="cls-1" x="60.76" y="132.56" width="5.52" height="5.52"/><rect class="cls-1" x="66.28" y="132.56" width="5.52" height="5.52"/><rect class="cls-1" x="71.8" y="132.56" width="5.52" height="5.52"/><rect class="cls-1" x="77.33" y="132.56" width="5.52" height="5.52"/><rect class="cls-1" x="82.85" y="132.56" width="5.52" height="5.52"/><rect class="cls-1" x="88.38" y="127.04" width="5.52" height="5.52"/><rect class="cls-1" x="93.9" y="121.52" width="5.52" height="5.52"/><rect class="cls-1" x="93.9" y="93.9" width="5.52" height="5.52"/><rect class="cls-1" x="88.38" y="88.38" width="5.52" height="5.52"/><rect class="cls-1" x="82.85" y="88.38" width="5.52" height="5.52"/><rect class="cls-1" x="77.33" y="88.38" width="5.52" height="5.52"/><rect class="cls-1" x="71.8" y="88.38" width="5.52" height="5.52"/><rect class="cls-1" x="66.28" y="88.38" width="5.52" height="5.52"/><rect class="cls-1" x="60.76" y="88.38" width="5.52" height="5.52"/><rect class="cls-1" x="55.23" y="88.38" width="5.52" height="5.52"/><rect class="cls-1" x="49.71" y="88.38" width="5.52" height="5.52"/><rect class="cls-1" x="44.19" y="88.38" width="5.52" height="5.52"/><rect class="cls-1" x="38.66" y="88.38" width="5.52" height="5.52"/><rect class="cls-1" x="38.66" y="93.9" width="5.52" height="5.52"/><rect class="cls-4" x="33.14" y="93.9" width="5.52" height="5.52"/><rect class="cls-1" x="27.62" y="93.9" width="5.52" height="5.52"/><rect class="cls-1" x="27.62" y="99.42" width="5.52" height="5.52"/><rect class="cls-1" x="22.09" y="99.42" width="5.52" height="5.52"/><rect class="cls-1" x="22.09" y="104.95" width="5.52" height="5.52"/><rect class="cls-1" x="22.09" y="110.47" width="5.52" height="5.52"/><rect class="cls-1" x="22.09" y="115.99" width="5.52" height="5.52"/><rect class="cls-1" x="27.62" y="115.99" width="5.52" height="5.52"/><rect class="cls-1" x="33.14" y="115.99" width="5.52" height="5.52"/><rect class="cls-1" x="38.66" y="115.99" width="5.52" height="5.52"/><rect class="cls-1" x="44.19" y="115.99" width="5.52" height="5.52"/><rect class="cls-1" x="49.71" y="115.99" width="5.52" height="5.52"/><rect class="cls-1" x="55.23" y="115.99" width="5.52" height="5.52"/><rect class="cls-1" x="60.76" y="115.99" width="5.52" height="5.52"/><rect class="cls-1" x="66.28" y="115.99" width="5.52" height="5.52"/><rect class="cls-1" x="71.8" y="115.99" width="5.52" height="5.52"/><rect class="cls-1" x="77.33" y="115.99" width="5.52" height="5.52"/><rect class="cls-1" x="82.85" y="115.99" width="5.52" height="5.52"/><rect class="cls-1" x="88.38" y="115.99" width="5.52" height="5.52"/><rect class="cls-1" x="93.9" y="115.99" width="5.52" height="5.52"/><rect class="cls-1" x="93.9" y="110.47" width="5.52" height="5.52"/><rect class="cls-1" x="93.9" y="104.95" width="5.52" height="5.52"/><rect class="cls-1" x="93.9" y="99.42" width="5.52" height="5.52"/><rect class="cls-1" x="88.38" y="99.42" width="5.52" height="5.52"/><rect class="cls-1" x="88.38" y="93.9" width="5.52" height="5.52"/><rect class="cls-1" x="82.85" y="93.9" width="5.52" height="5.52"/><rect class="cls-1" x="77.33" y="93.9" width="5.52" height="5.52"/><rect class="cls-1" x="71.8" y="93.9" width="5.52" height="5.52"/><rect class="cls-1" x="66.28" y="93.9" width="5.52" height="5.52"/><rect class="cls-1" x="60.76" y="93.9" width="5.52" height="5.52"/><rect class="cls-1" x="55.23" y="93.9" width="5.52" height="5.52"/><rect class="cls-1" x="49.71" y="93.9" width="5.52" height="5.52"/><rect class="cls-1" x="44.19" y="93.9" width="5.52" height="5.52"/><rect class="cls-1" x="44.19" y="99.42" width="5.52" height="5.52"/><rect class="cls-1" x="38.66" y="99.42" width="5.52" height="5.52"/><rect class="cls-1" x="33.14" y="99.42" width="5.52" height="5.52"/><rect class="cls-1" x="33.14" y="104.95" width="5.52" height="5.52"/><rect class="cls-1" x="27.62" y="104.95" width="5.52" height="5.52"/><rect class="cls-1" x="27.62" y="110.47" width="5.52" height="5.52"/><rect class="cls-4" x="33.14" y="110.47" width="5.52" height="5.52"/><rect class="cls-1" x="38.66" y="110.47" width="5.52" height="5.52"/><rect class="cls-1" x="44.19" y="110.47" width="5.52" height="5.52"/><rect class="cls-1" x="49.71" y="110.47" width="5.52" height="5.52"/><rect class="cls-1" x="55.23" y="110.47" width="5.52" height="5.52"/><rect class="cls-1" x="60.76" y="110.47" width="5.52" height="5.52"/><rect class="cls-1" x="66.28" y="110.47" width="5.52" height="5.52"/><rect class="cls-1" x="71.8" y="110.47" width="5.52" height="5.52"/><rect class="cls-1" x="77.33" y="110.47" width="5.52" height="5.52"/><rect class="cls-1" x="82.85" y="110.47" width="5.52" height="5.52"/><rect class="cls-1" x="88.38" y="110.47" width="5.52" height="5.52"/><rect class="cls-1" x="88.38" y="104.95" width="5.52" height="5.52"/><rect class="cls-1" x="82.85" y="104.95" width="5.52" height="5.52"/><rect class="cls-1" x="82.85" y="99.42" width="5.52" height="5.52"/><rect class="cls-1" x="77.33" y="99.42" width="5.52" height="5.52"/><rect class="cls-1" x="71.8" y="99.42" width="5.52" height="5.52"/><rect class="cls-1" x="66.28" y="99.42" width="5.52" height="5.52"/><rect class="cls-1" x="60.76" y="99.42" width="5.52" height="5.52"/><rect class="cls-1" x="55.23" y="99.42" width="5.52" height="5.52"/><rect class="cls-1" x="49.71" y="99.42" width="5.52" height="5.52"/><rect class="cls-1" x="49.71" y="104.95" width="5.52" height="5.52"/><rect class="cls-1" x="44.19" y="104.95" width="5.52" height="5.52"/><rect class="cls-1" x="38.66" y="104.95" width="5.52" height="5.52"/><rect class="cls-1" x="55.23" y="104.95" width="5.52" height="5.52"/><rect class="cls-1" x="60.76" y="104.95" width="5.52" height="5.52"/><rect class="cls-1" x="66.28" y="104.95" width="5.52" height="5.52"/><rect class="cls-1" x="71.8" y="104.95" width="5.52" height="5.52"/><rect class="cls-1" x="77.33" y="104.95" width="5.52" height="5.52"/><rect class="cls-1" x="88.38" y="121.52" width="5.52" height="5.52"/><rect class="cls-1" x="82.85" y="121.52" width="5.52" height="5.52"/><rect class="cls-1" x="77.33" y="121.52" width="5.52" height="5.52"/><rect class="cls-1" x="71.8" y="121.52" width="5.52" height="5.52"/><rect class="cls-1" x="66.28" y="121.52" width="5.52" height="5.52"/><rect class="cls-1" x="60.76" y="121.52" width="5.52" height="5.52"/><rect class="cls-1" x="55.23" y="121.52" width="5.52" height="5.52"/><rect class="cls-1" x="49.71" y="121.52" width="5.52" height="5.52"/><rect class="cls-1" x="44.19" y="121.52" width="5.52" height="5.52"/><rect class="cls-4" x="38.66" y="121.52" width="5.52" height="5.52"/><rect class="cls-1" x="33.14" y="121.52" width="5.52" height="5.52"/><rect class="cls-1" x="27.62" y="121.52" width="5.52" height="5.52"/><rect class="cls-1" x="33.14" y="127.04" width="5.52" height="5.52"/><rect class="cls-1" x="38.66" y="127.04" width="5.52" height="5.52"/><rect class="cls-1" x="44.19" y="127.04" width="5.52" height="5.52"/><rect class="cls-1" x="49.71" y="127.04" width="5.52" height="5.52"/><rect class="cls-1" x="55.23" y="127.04" width="5.52" height="5.52"/><rect class="cls-1" x="60.76" y="127.04" width="5.52" height="5.52"/><rect class="cls-1" x="66.28" y="127.04" width="5.52" height="5.52"/><rect class="cls-1" x="71.8" y="127.04" width="5.52" height="5.52"/><rect class="cls-1" x="77.33" y="127.04" width="5.52" height="5.52"/><rect class="cls-1" x="82.85" y="127.04" width="5.52" height="5.52"/><rect class="cls-1" x="38.66" y="82.85" width="5.52" height="5.52"/><rect class="cls-1" x="44.19" y="82.85" width="5.52" height="5.52"/><rect class="cls-1" x="49.71" y="82.85" width="5.52" height="5.52"/><rect class="cls-1" x="55.23" y="82.85" width="5.52" height="5.52"/><rect class="cls-1" x="60.76" y="82.85" width="5.52" height="5.52"/><rect class="cls-1" x="66.28" y="82.85" width="5.52" height="5.52"/><rect class="cls-1" x="71.8" y="82.85" width="5.52" height="5.52"/><rect class="cls-1" x="77.33" y="82.85" width="5.52" height="5.52"/><rect class="cls-1" x="33.14" y="77.33" width="5.52" height="5.52"/><rect class="cls-1" x="44.19" y="38.66" width="5.52" height="5.52"/><rect class="cls-1" x="49.71" y="38.66" width="5.52" height="5.52"/><rect class="cls-1" x="55.23" y="38.66" width="5.52" height="5.52"/><rect class="cls-1" x="60.76" y="38.66" width="5.52" height="5.52"/><rect class="cls-1" x="66.28" y="38.66" width="5.52" height="5.52"/><rect x="38.66" y="22.09" width="5.52" height="5.52"/></svg>