<svg id="Layer_1" data-name="Layer 1" xmlns="http://www.w3.org/2000/svg" viewBox="0 0 138.09 165.7"><defs><style>.cls-1{fill:#0b8700;}.cls-2{fill:#ffb817;}.cls-3{fill:#b93600;}.cls-4{fill:#0b7200;}.cls-5{fill:#5c2800;}</style></defs><rect class="cls-1" x="66.28" y="27.62" width="5.52" height="5.52"/><rect class="cls-2" x="66.28" y="22.09" width="5.52" height="5.52"/><rect class="cls-3" x="66.28" y="16.57" width="5.52" height="5.52"/><rect class="cls-3" x="66.28" y="11.05" width="5.52" height="5.52"/><rect class="cls-3" x="66.28" y="5.52" width="5.52" height="5.52"/><rect class="cls-3" x="60.76" y="11.05" width="5.52" height="5.52"/><rect class="cls-3" x="55.24" y="5.52" width="5.52" height="5.52"/><rect class="cls-3" x="71.81" y="11.05" width="5.52" height="5.52"/><rect class="cls-3" x="77.33" y="5.52" width="5.52" height="5.52"/><rect class="cls-3" x="66.28" width="5.52" height="5.52"/><rect class="cls-3" x="60.76" y="16.57" width="5.52" height="5.52"/><rect class="cls-3" x="55.24" y="22.09" width="5.52" height="5.52"/><rect class="cls-3" x="71.81" y="16.57" width="5.52" height="5.52"/><rect class="cls-3" x="77.33" y="22.09" width="5.52" height="5.52"/><rect class="cls-1" x="60.76" y="33.14" width="5.52" height="5.52"/><rect class="cls-1" x="66.28" y="33.14" width="5.52" height="5.52"/><rect class="cls-1" x="71.81" y="33.14" width="5.52" height="5.52"/><rect class="cls-1" x="77.33" y="38.66" width="5.52" height="5.52"/><rect class="cls-1" x="71.81" y="38.66" width="5.52" height="5.52"/><rect class="cls-1" x="66.28" y="38.66" width="5.52" height="5.52"/><rect class="cls-2" x="60.76" y="38.66" width="5.52" height="5.52"/><rect class="cls-1" x="55.24" y="38.66" width="5.52" height="5.52"/><rect class="cls-1" x="55.24" y="44.19" width="5.52" height="5.52"/><rect class="cls-1" x="60.76" y="44.19" width="5.52" height="5.52"/><rect class="cls-2" x="66.28" y="44.19" width="5.52" height="5.52"/><rect class="cls-2" x="71.81" y="44.19" width="5.52" height="5.52"/><rect class="cls-2" x="77.33" y="44.19" width="5.52" height="5.52"/><rect class="cls-2" x="82.85" y="49.71" width="5.52" height="5.52"/><rect class="cls-1" x="77.33" y="49.71" width="5.52" height="5.52"/><rect class="cls-1" x="71.81" y="49.71" width="5.52" height="5.52"/><rect class="cls-1" x="66.28" y="49.71" width="5.52" height="5.52"/><rect class="cls-3" x="60.76" y="49.71" width="5.52" height="5.52"/><rect class="cls-3" x="55.24" y="49.71" width="5.52" height="5.52"/><rect class="cls-1" x="49.71" y="49.71" width="5.52" height="5.52"/><rect class="cls-1" x="49.71" y="55.23" width="5.52" height="5.52"/><rect class="cls-3" x="55.24" y="55.23" width="5.52" height="5.52"/><rect class="cls-3" x="60.76" y="55.23" width="5.52" height="5.52"/><rect class="cls-1" x="66.28" y="55.23" width="5.52" height="5.52"/><rect class="cls-1" x="71.81" y="55.23" width="5.52" height="5.52"/><rect class="cls-2" x="77.33" y="55.23" width="5.52" height="5.52"/><rect class="cls-1" x="82.85" y="55.23" width="5.52" height="5.52"/><rect class="cls-1" x="88.38" y="60.76" width="5.52" height="5.52"/><rect class="cls-1" x="82.85" y="60.76" width="5.52" height="5.52"/><rect class="cls-1" x="77.33" y="60.76" width="5.52" height="5.52"/><rect class="cls-3" x="71.81" y="60.76" width="5.52" height="5.52"/><rect class="cls-1" x="66.28" y="60.76" width="5.52" height="5.52"/><rect class="cls-4" x="60.76" y="60.76" width="5.52" height="5.52"/><rect class="cls-4" x="55.24" y="60.76" width="5.52" height="5.52"/><rect class="cls-1" x="49.71" y="60.76" width="5.52" height="5.52"/><rect class="cls-1" x="44.19" y="60.76" width="5.52" height="5.52"/><rect class="cls-2" x="44.19" y="66.28" width="5.52" height="5.52"/><rect class="cls-1" x="49.71" y="66.28" width="5.52" height="5.52"/><rect class="cls-1" x="55.24" y="66.28" width="5.52" height="5.52"/><rect class="cls-1" x="60.76" y="66.28" width="5.52" height="5.52"/><rect class="cls-2" x="66.28" y="66.28" width="5.52" height="5.52"/><rect class="cls-1" x="71.81" y="66.28" width="5.52" height="5.52"/><rect class="cls-1" x="77.33" y="66.28" width="5.52" height="5.52"/><rect class="cls-1" x="82.85" y="66.28" width="5.52" height="5.52"/><rect class="cls-1" x="88.38" y="66.28" width="5.52" height="5.52"/><rect class="cls-1" x="93.9" y="71.8" width="5.52" height="5.52"/><rect class="cls-1" x="88.38" y="71.8" width="5.52" height="5.52"/><rect class="cls-2" x="82.85" y="71.8" width="5.52" height="5.52"/><rect class="cls-2" x="77.33" y="71.8" width="5.52" height="5.52"/><rect class="cls-1" x="71.81" y="71.8" width="5.52" height="5.52"/><rect class="cls-1" x="66.28" y="71.8" width="5.52" height="5.52"/><rect class="cls-2" x="60.76" y="71.8" width="5.52" height="5.52"/><rect class="cls-1" x="55.24" y="71.8" width="5.52" height="5.52"/><rect class="cls-3" x="49.71" y="71.8" width="5.52" height="5.52"/><rect class="cls-1" x="44.19" y="71.8" width="5.52" height="5.52"/><rect class="cls-1" x="38.66" y="71.8" width="5.52" height="5.52"/><rect class="cls-1" x="38.66" y="77.33" width="5.52" height="5.52"/><rect class="cls-1" x="44.19" y="77.33" width="5.52" height="5.52"/><rect class="cls-1" x="49.71" y="77.33" width="5.52" height="5.52"/><rect class="cls-2" x="55.24" y="77.33" width="5.52" height="5.52"/><rect class="cls-1" x="60.76" y="77.33" width="5.52" height="5.52"/><rect class="cls-1" x="66.28" y="77.33" width="5.52" height="5.52"/><rect class="cls-1" x="71.81" y="77.33" width="5.52" height="5.52"/><rect class="cls-2" x="77.33" y="77.33" width="5.52" height="5.52"/><rect class="cls-2" x="82.85" y="77.33" width="5.52" height="5.52"/><rect class="cls-1" x="88.38" y="77.33" width="5.52" height="5.52"/><rect class="cls-1" x="93.9" y="77.33" width="5.52" height="5.52"/><rect class="cls-2" x="99.42" y="82.85" width="5.52" height="5.52"/><rect class="cls-1" x="93.9" y="82.85" width="5.52" height="5.52"/><rect class="cls-1" x="88.38" y="82.85" width="5.52" height="5.52"/><rect class="cls-4" x="82.85" y="82.85" width="5.52" height="5.52"/><rect class="cls-4" x="77.33" y="82.85" width="5.52" height="5.52"/><rect class="cls-1" x="71.81" y="82.85" width="5.52" height="5.52"/><rect class="cls-1" x="66.28" y="82.85" width="5.52" height="5.52"/><rect class="cls-3" x="60.76" y="82.85" width="5.52" height="5.52"/><rect class="cls-1" x="55.24" y="82.85" width="5.52" height="5.52"/><rect class="cls-1" x="49.71" y="82.85" width="5.52" height="5.52"/><rect class="cls-1" x="44.19" y="82.85" width="5.52" height="5.52"/><rect class="cls-1" x="38.66" y="82.85" width="5.52" height="5.52"/><rect class="cls-1" x="33.14" y="82.85" width="5.52" height="5.52"/><rect class="cls-1" x="33.14" y="88.38" width="5.52" height="5.52"/><rect class="cls-3" x="38.66" y="88.38" width="5.52" height="5.52"/><rect class="cls-3" x="44.19" y="88.38" width="5.52" height="5.52"/><rect class="cls-1" x="49.71" y="88.38" width="5.52" height="5.52"/><rect class="cls-1" x="55.24" y="88.38" width="5.52" height="5.52"/><rect class="cls-1" x="60.76" y="88.38" width="5.52" height="5.52"/><rect class="cls-2" x="66.28" y="88.38" width="5.52" height="5.52"/><rect class="cls-1" x="71.81" y="88.38" width="5.52" height="5.52"/><rect class="cls-1" x="77.33" y="88.38" width="5.52" height="5.52"/><rect class="cls-1" x="82.85" y="88.38" width="5.52" height="5.52"/><rect class="cls-1" x="88.38" y="88.38" width="5.52" height="5.52"/><rect class="cls-2" x="93.9" y="88.38" width="5.52" height="5.52"/><rect class="cls-1" x="99.42" y="88.38" width="5.52" height="5.52"/><rect class="cls-1" x="104.95" y="93.9" width="5.52" height="5.52"/><rect class="cls-1" x="99.42" y="93.9" width="5.52" height="5.52"/><rect class="cls-1" x="93.9" y="93.9" width="5.52" height="5.52"/><rect class="cls-2" x="88.38" y="93.9" width="5.52" height="5.52"/><rect class="cls-3" x="82.85" y="93.9" width="5.52" height="5.52"/><rect class="cls-2" x="77.33" y="93.9" width="5.52" height="5.52"/><rect class="cls-2" x="71.81" y="93.9" width="5.52" height="5.52"/><rect class="cls-1" x="66.28" y="93.9" width="5.52" height="5.52"/><rect class="cls-1" x="60.76" y="93.9" width="5.52" height="5.52"/><rect class="cls-1" x="55.24" y="93.9" width="5.52" height="5.52"/><rect class="cls-1" x="49.71" y="93.9" width="5.52" height="5.52"/><rect class="cls-3" x="44.19" y="93.9" width="5.52" height="5.52"/><rect class="cls-3" x="38.66" y="93.9" width="5.52" height="5.52"/><rect class="cls-1" x="33.14" y="93.9" width="5.52" height="5.52"/><rect class="cls-1" x="27.62" y="93.9" width="5.52" height="5.52"/><rect class="cls-1" x="27.62" y="99.42" width="5.52" height="5.52"/><rect class="cls-1" x="33.14" y="99.42" width="5.52" height="5.52"/><rect class="cls-4" x="38.66" y="99.42" width="5.52" height="5.52"/><rect class="cls-4" x="44.19" y="99.42" width="5.52" height="5.52"/><rect class="cls-1" x="49.71" y="99.42" width="5.52" height="5.52"/><rect class="cls-1" x="55.24" y="99.42" width="5.52" height="5.52"/><rect class="cls-1" x="60.76" y="99.42" width="5.52" height="5.52"/><rect class="cls-2" x="66.28" y="99.42" width="5.52" height="5.52"/><rect class="cls-1" x="71.81" y="99.42" width="5.52" height="5.52"/><rect class="cls-1" x="77.33" y="99.42" width="5.52" height="5.52"/><rect class="cls-1" x="82.85" y="99.42" width="5.52" height="5.52"/><rect class="cls-1" x="88.38" y="99.42" width="5.52" height="5.52"/><rect class="cls-1" x="93.9" y="99.42" width="5.52" height="5.52"/><rect class="cls-1" x="99.42" y="99.42" width="5.52" height="5.52"/><rect class="cls-1" x="104.95" y="99.42" width="5.52" height="5.52"/><rect class="cls-1" x="110.47" y="104.95" width="5.52" height="5.52"/><rect class="cls-1" x="104.95" y="104.95" width="5.52" height="5.52"/><rect class="cls-1" x="99.42" y="104.95" width="5.52" height="5.52"/><rect class="cls-1" x="93.9" y="104.95" width="5.52" height="5.52"/><rect class="cls-1" x="88.38" y="104.95" width="5.52" height="5.52"/><rect class="cls-1" x="82.85" y="104.95" width="5.52" height="5.52"/><rect class="cls-1" x="77.33" y="104.95" width="5.52" height="5.52"/><rect class="cls-1" x="71.81" y="104.95" width="5.52" height="5.52"/><rect class="cls-1" x="66.28" y="104.95" width="5.52" height="5.52"/><rect class="cls-2" x="60.76" y="104.95" width="5.52" height="5.52"/><rect class="cls-1" x="55.24" y="104.95" width="5.52" height="5.52"/><rect class="cls-1" x="49.71" y="104.95" width="5.52" height="5.52"/><rect class="cls-1" x="44.19" y="104.95" width="5.52" height="5.52"/><rect class="cls-1" x="38.66" y="104.95" width="5.52" height="5.52"/><rect class="cls-1" x="33.14" y="104.95" width="5.52" height="5.52"/><rect class="cls-2" x="27.62" y="104.95" width="5.52" height="5.52"/><rect class="cls-1" x="22.09" y="104.95" width="5.52" height="5.52"/><rect class="cls-1" x="22.09" y="110.47" width="5.52" height="5.52"/><rect class="cls-1" x="27.62" y="110.47" width="5.52" height="5.52"/><rect class="cls-2" x="33.14" y="110.47" width="5.52" height="5.52"/><rect class="cls-3" x="38.66" y="110.47" width="5.52" height="5.52"/><rect class="cls-2" x="44.19" y="110.47" width="5.52" height="5.52"/><rect class="cls-3" x="49.71" y="110.47" width="5.52" height="5.52"/><rect class="cls-2" x="55.24" y="110.47" width="5.52" height="5.52"/><rect class="cls-1" x="60.76" y="110.47" width="5.52" height="5.52"/><rect class="cls-1" x="66.28" y="110.47" width="5.52" height="5.52"/><rect class="cls-1" x="71.81" y="110.47" width="5.52" height="5.52"/><rect class="cls-1" x="77.33" y="110.47" width="5.52" height="5.52"/><rect class="cls-3" x="82.85" y="110.47" width="5.52" height="5.52"/><rect class="cls-3" x="88.38" y="110.47" width="5.52" height="5.52"/><rect class="cls-1" x="93.9" y="110.47" width="5.52" height="5.52"/><rect class="cls-1" x="99.42" y="110.47" width="5.52" height="5.52"/><rect class="cls-1" x="104.95" y="110.47" width="5.52" height="5.52"/><rect class="cls-1" x="110.47" y="110.47" width="5.52" height="5.52"/><rect class="cls-1" x="115.99" y="115.99" width="5.52" height="5.52"/><rect class="cls-1" x="110.47" y="115.99" width="5.52" height="5.52"/><rect class="cls-1" x="104.95" y="115.99" width="5.52" height="5.52"/><rect class="cls-1" x="99.42" y="115.99" width="5.52" height="5.52"/><rect class="cls-1" x="93.9" y="115.99" width="5.52" height="5.52"/><rect class="cls-3" x="88.38" y="115.99" width="5.52" height="5.52"/><rect class="cls-3" x="82.85" y="115.99" width="5.52" height="5.52"/><rect class="cls-1" x="77.33" y="115.99" width="5.52" height="5.52"/><rect class="cls-1" x="71.81" y="115.99" width="5.52" height="5.52"/><rect class="cls-1" x="66.28" y="115.99" width="5.52" height="5.52"/><rect class="cls-2" x="60.76" y="115.99" width="5.52" height="5.52"/><rect class="cls-1" x="55.24" y="115.99" width="5.52" height="5.52"/><rect class="cls-1" x="49.71" y="115.99" width="5.52" height="5.52"/><rect class="cls-1" x="44.19" y="115.99" width="5.52" height="5.52"/><rect class="cls-1" x="38.66" y="115.99" width="5.52" height="5.52"/><rect class="cls-1" x="33.14" y="115.99" width="5.52" height="5.52"/><rect class="cls-2" x="27.62" y="115.99" width="5.52" height="5.52"/><rect class="cls-1" x="22.09" y="115.99" width="5.52" height="5.52"/><rect class="cls-1" x="16.57" y="115.99" width="5.52" height="5.52"/><rect class="cls-1" x="16.57" y="121.52" width="5.52" height="5.52"/><rect class="cls-3" x="22.09" y="121.52" width="5.52" height="5.52"/><rect class="cls-1" x="27.62" y="121.52" width="5.52" height="5.52"/><rect class="cls-1" x="33.14" y="121.52" width="5.52" height="5.52"/><rect class="cls-1" x="38.66" y="121.52" width="5.52" height="5.52"/><rect class="cls-1" x="44.19" y="121.52" width="5.52" height="5.52"/><rect class="cls-1" x="49.71" y="121.52" width="5.52" height="5.52"/><rect class="cls-1" x="55.24" y="121.52" width="5.52" height="5.52"/><rect class="cls-1" x="60.76" y="121.52" width="5.52" height="5.52"/><rect class="cls-2" x="66.28" y="121.52" width="5.52" height="5.52"/><rect class="cls-1" x="71.81" y="121.52" width="5.52" height="5.52"/><rect class="cls-1" x="77.33" y="121.52" width="5.52" height="5.52"/><rect class="cls-4" x="82.85" y="121.52" width="5.52" height="5.52"/><rect class="cls-4" x="88.38" y="121.52" width="5.52" height="5.52"/><rect class="cls-1" x="93.9" y="121.52" width="5.52" height="5.52"/><rect class="cls-1" x="99.42" y="121.52" width="5.52" height="5.52"/><rect class="cls-1" x="104.95" y="121.52" width="5.52" height="5.52"/><rect class="cls-1" x="110.47" y="121.52" width="5.52" height="5.52"/><rect class="cls-1" x="115.99" y="121.52" width="5.52" height="5.52"/><rect class="cls-1" x="121.52" y="127.04" width="5.52" height="5.52"/><rect class="cls-1" x="115.99" y="127.04" width="5.52" height="5.52"/><rect class="cls-1" x="110.47" y="127.04" width="5.52" height="5.52"/><rect class="cls-1" x="104.95" y="127.04" width="5.52" height="5.52"/><rect class="cls-1" x="99.42" y="127.04" width="5.52" height="5.52"/><rect class="cls-1" x="93.9" y="127.04" width="5.52" height="5.52"/><rect class="cls-1" x="88.38" y="127.04" width="5.52" height="5.52"/><rect class="cls-1" x="82.85" y="127.04" width="5.52" height="5.52"/><rect class="cls-1" x="77.33" y="127.04" width="5.52" height="5.52"/><rect class="cls-2" x="71.81" y="127.04" width="5.52" height="5.52"/><rect class="cls-1" x="66.28" y="127.04" width="5.52" height="5.52"/><rect class="cls-1" x="60.76" y="127.04" width="5.52" height="5.52"/><rect class="cls-2" x="55.24" y="127.04" width="5.52" height="5.52"/><rect class="cls-2" x="49.71" y="127.04" width="5.52" height="5.52"/><rect class="cls-1" x="44.19" y="127.04" width="5.52" height="5.52"/><rect class="cls-1" x="38.66" y="127.04" width="5.52" height="5.52"/><rect class="cls-1" x="33.14" y="127.04" width="5.52" height="5.52"/><rect class="cls-1" x="27.62" y="127.04" width="5.52" height="5.52"/><rect class="cls-1" x="22.09" y="127.04" width="5.52" height="5.52"/><rect class="cls-2" x="16.57" y="127.04" width="5.52" height="5.52"/><rect class="cls-1" x="11.05" y="127.04" width="5.52" height="5.52"/><rect class="cls-1" x="11.05" y="132.56" width="5.52" height="5.52"/><rect class="cls-1" x="16.57" y="132.56" width="5.52" height="5.52"/><rect class="cls-1" x="22.09" y="132.56" width="5.52" height="5.52"/><rect class="cls-1" x="27.62" y="132.56" width="5.52" height="5.52"/><rect class="cls-1" x="33.14" y="132.56" width="5.52" height="5.52"/><rect class="cls-1" x="38.66" y="132.56" width="5.52" height="5.52"/><rect class="cls-1" x="44.19" y="132.56" width="5.52" height="5.52"/><rect class="cls-2" x="49.71" y="132.56" width="5.52" height="5.52"/><rect class="cls-2" x="55.24" y="132.56" width="5.52" height="5.52"/><rect class="cls-1" x="60.76" y="132.56" width="5.52" height="5.52"/><rect class="cls-1" x="66.28" y="132.56" width="5.52" height="5.52"/><rect class="cls-1" x="71.81" y="132.56" width="5.52" height="5.52"/><rect class="cls-2" x="77.33" y="132.56" width="5.52" height="5.52"/><rect class="cls-1" x="82.85" y="132.56" width="5.52" height="5.52"/><rect class="cls-1" x="88.38" y="132.56" width="5.52" height="5.52"/><rect class="cls-1" x="93.9" y="132.56" width="5.52" height="5.52"/><rect class="cls-1" x="99.42" y="132.56" width="5.52" height="5.52"/><rect class="cls-2" x="104.95" y="132.56" width="5.52" height="5.52"/><rect class="cls-2" x="110.47" y="132.56" width="5.52" height="5.52"/><rect class="cls-1" x="115.99" y="132.56" width="5.52" height="5.52"/><rect class="cls-1" x="121.52" y="132.56" width="5.52" height="5.52"/><rect class="cls-1" x="127.04" y="138.09" width="5.52" height="5.52"/><rect class="cls-1" x="121.52" y="138.09" width="5.52" height="5.52"/><rect class="cls-1" x="115.99" y="138.09" width="5.52" height="5.52"/><rect class="cls-2" x="110.47" y="138.09" width="5.52" height="5.52"/><rect class="cls-2" x="104.95" y="138.09" width="5.52" height="5.52"/><rect class="cls-1" x="99.42" y="138.09" width="5.52" height="5.52"/><rect class="cls-1" x="93.9" y="138.09" width="5.52" height="5.52"/><rect class="cls-1" x="88.38" y="138.09" width="5.52" height="5.52"/><rect class="cls-3" x="82.85" y="138.09" width="5.52" height="5.52"/><rect class="cls-1" x="77.33" y="138.09" width="5.52" height="5.52"/><rect class="cls-1" x="71.81" y="138.09" width="5.52" height="5.52"/><rect class="cls-1" x="66.28" y="138.09" width="5.52" height="5.52"/><rect class="cls-1" x="60.76" y="138.09" width="5.52" height="5.52"/><rect class="cls-4" x="55.24" y="138.09" width="5.52" height="5.52"/><rect class="cls-4" x="49.71" y="138.09" width="5.52" height="5.52"/><rect class="cls-1" x="44.19" y="138.09" width="5.52" height="5.52"/><rect class="cls-1" x="38.66" y="138.09" width="5.52" height="5.52"/><rect class="cls-1" x="33.14" y="138.09" width="5.52" height="5.52"/><rect class="cls-1" x="27.62" y="138.09" width="5.52" height="5.52"/><rect class="cls-2" x="22.09" y="138.09" width="5.52" height="5.52"/><rect class="cls-2" x="16.57" y="138.09" width="5.52" height="5.52"/><rect class="cls-1" x="11.05" y="138.09" width="5.52" height="5.52"/><rect class="cls-1" x="5.52" y="138.09" width="5.52" height="5.52"/><rect class="cls-1" x="5.52" y="143.61" width="5.52" height="5.52"/><rect class="cls-1" x="11.05" y="143.61" width="5.52" height="5.52"/><rect class="cls-2" x="16.57" y="143.61" width="5.52" height="5.52"/><rect class="cls-2" x="22.09" y="143.61" width="5.52" height="5.52"/><rect class="cls-1" x="27.62" y="143.61" width="5.52" height="5.52"/><rect class="cls-1" x="33.14" y="143.61" width="5.52" height="5.52"/><rect class="cls-1" x="38.66" y="143.61" width="5.52" height="5.52"/><rect class="cls-1" x="44.19" y="143.61" width="5.52" height="5.52"/><rect class="cls-1" x="49.71" y="143.61" width="5.52" height="5.52"/><rect class="cls-1" x="55.24" y="143.61" width="5.52" height="5.52"/><rect class="cls-1" x="60.76" y="143.61" width="5.52" height="5.52"/><rect class="cls-1" x="66.28" y="143.61" width="5.52" height="5.52"/><rect class="cls-1" x="71.81" y="143.61" width="5.52" height="5.52"/><rect class="cls-1" x="77.33" y="143.61" width="5.52" height="5.52"/><rect class="cls-1" x="82.85" y="143.61" width="5.52" height="5.52"/><rect class="cls-2" x="88.38" y="143.61" width="5.52" height="5.52"/><rect class="cls-2" x="93.9" y="143.61" width="5.52" height="5.52"/><rect class="cls-1" x="99.42" y="143.61" width="5.52" height="5.52"/><rect class="cls-4" x="104.95" y="143.61" width="5.52" height="5.52"/><rect class="cls-4" x="110.47" y="143.61" width="5.52" height="5.52"/><rect class="cls-1" x="115.99" y="143.61" width="5.52" height="5.52"/><rect class="cls-1" x="121.52" y="143.61" width="5.52" height="5.52"/><rect class="cls-1" x="127.04" y="143.61" width="5.52" height="5.52"/><rect class="cls-1" y="149.13" width="5.52" height="5.52"/><rect class="cls-1" x="5.52" y="149.13" width="5.52" height="5.52"/><rect class="cls-1" x="11.05" y="149.13" width="5.52" height="5.52"/><rect class="cls-4" x="16.57" y="149.13" width="5.52" height="5.52"/><rect class="cls-4" x="22.09" y="149.13" width="5.52" height="5.52"/><rect class="cls-1" x="27.62" y="149.13" width="5.52" height="5.52"/><rect class="cls-1" x="33.14" y="149.13" width="5.52" height="5.52"/><rect class="cls-1" x="38.66" y="149.13" width="5.52" height="5.52"/><rect class="cls-1" x="44.19" y="149.13" width="5.52" height="5.52"/><rect class="cls-1" x="49.71" y="149.13" width="5.52" height="5.52"/><rect class="cls-1" x="55.24" y="149.13" width="5.52" height="5.52"/><rect class="cls-1" x="60.76" y="149.13" width="5.52" height="5.52"/><rect class="cls-1" x="66.28" y="149.13" width="5.52" height="5.52"/><rect class="cls-1" x="71.81" y="149.13" width="5.52" height="5.52"/><rect class="cls-1" x="77.33" y="149.13" width="5.52" height="5.52"/><rect class="cls-1" x="82.85" y="149.13" width="5.52" height="5.52"/><rect class="cls-1" x="88.38" y="149.13" width="5.52" height="5.52"/><rect class="cls-1" x="93.9" y="149.13" width="5.52" height="5.52"/><rect class="cls-2" x="99.42" y="149.13" width="5.52" height="5.52"/><rect class="cls-1" x="104.95" y="149.13" width="5.52" height="5.52"/><rect class="cls-1" x="110.47" y="149.13" width="5.52" height="5.52"/><rect class="cls-1" x="115.99" y="149.13" width="5.52" height="5.52"/><rect class="cls-1" x="121.52" y="149.13" width="5.52" height="5.52"/><rect class="cls-1" x="127.04" y="149.13" width="5.52" height="5.52"/><rect class="cls-1" x="132.56" y="149.13" width="5.52" height="5.52"/><rect class="cls-5" x="66.28" y="154.66" width="5.52" height="5.52"/><rect class="cls-5" x="66.28" y="160.18" width="5.52" height="5.52"/><rect class="cls-5" x="60.76" y="160.18" width="5.52" height="5.52"/><rect class="cls-5" x="60.76" y="154.66" width="5.52" height="5.52"/><rect class="cls-5" x="71.81" y="154.66" width="5.52" height="5.52"/><rect class="cls-5" x="71.81" y="160.18" width="5.52" height="5.52"/><rect class="cls-5" x="77.33" y="160.18" width="5.52" height="5.52"/><rect class="cls-5" x="55.24" y="160.18" width="5.52" height="5.52"/><rect class="cls-5" x="60.76" y="160.18" width="5.52" height="5.52"/></svg>